<?xml version="1.0"?>
<svg id="Layer_2" data-name="Layer 2" xmlns="http://www.w3.org/2000/svg" viewBox="0 0 458.52 542.4">
  <defs>
    
  </defs>
  <g id="Layer_1" data-name="Layer 1">
    <g>
      <g>
        <path class="cls-1" d="M395.08,73.81C353.88,26.15,298.82,2.32,229.87,2.32c-65.25,0-119.16,21.76-161.73,65.25C24.63,111.53,2.88,169.38,2.88,241.1c0,41.95,6.59,80.54,20.59,113.07,2.77-.47,5.98-2.08,8.74-2.08h110.41c-20.82-28.09-39.1-65.09-39.1-111s11.21-85.61,33.66-113.84c22.45-28.23,52.64-42.34,90.59-42.34s68.72,14.01,90.93,42c22.21,28,33.33,65.83,33.33,113.49,0,42.58.54,82.54-20.29,110.3l103.22,2.27c14.04-31.62,17.71-70.19,17.71-113.96,0-65.25-19.2-120.31-57.61-165.21Z"></path>
        <path class="cls-1" d="M291.45,306.09c5.22,3.91,9.78,8.3,14.36,12.93,1.27,1.25,2.53,2.5,3.84,3.78,4.71,4.67,9.37,9.4,14,14.15q9.54,9.62,22.54,11.74,1.47.02,2.98.05c3.22.04,6.43.03,9.65.02,2.24.02,4.48.04,6.73.07,5.88.06,11.76.07,17.64.08,6.01.01,12.02.07,18.03.12,11.77.09,23.55.14,35.32.16-6.68,17.08-17.59,32.2-29.6,45.95-1.19,1.37-2.38,2.74-3.61,4.15-1.1,1.21-2.2,2.42-3.33,3.67q-2.54,3.52-2.34,7.51c2.31,7.19,7.09,11.15,12.48,16.28q1.65,1.62,3.33,3.27c3.52,3.45,7.05,6.87,10.6,10.29,3.53,3.42,7.05,6.84,10.55,10.27,2.18,2.13,4.37,4.26,6.58,6.37,10.13,9.9,16.14,19.58,17.35,34.08-.53,16.14-7.19,29.37-18.85,40.31-11.35,9.16-21.88,11.64-36.37,10.95-20.06-2.27-33.65-19.97-46.91-33.68-2.32-2.39-4.65-4.77-6.97-7.16-3.61-3.7-7.2-7.42-10.77-11.16-3.48-3.65-7.01-7.26-10.54-10.86-1.06-1.13-2.12-2.26-3.21-3.42q-5.22-5.54-12.13-8.02-3.46.31-8.39,1.85c-1.13.26-2.26.51-3.43.78-.92.28-1.84.55-2.8.83-1.05.31-2.1.61-3.18.92-1.07.32-2.15.64-3.26.97-57.5,16.46-120.14,9.25-172.64-19.3-6.96-3.94-13.59-8.29-20.11-12.93-.8-.57-1.6-1.13-2.43-1.72-30.9-22.27-61.17-54.17-75.14-90.21,14.95-.27,29.89-.47,44.84-.6,6.94-.06,13.88-.14,20.82-.27,6.71-.13,13.41-.19,20.12-.22,2.55-.02,5.1-.06,7.65-.12q22.48-.53,30.74,6.8c1.73,1.95,3.43,3.91,5.11,5.9,11.55,9.16,25.18,16.07,38.78,21.55,1.37.56,2.74,1.12,4.16,1.7,15.28,5.47,31.48,5.9,47.55,6.92-.76-.9-1.53-1.81-2.31-2.74-6.06-7.35-11.24-14.31-14.93-23.12-.51-1.08-1.02-2.16-1.55-3.27-3.29-9.71-2.96-23.02.92-32.55,6.56-12.26,16.71-22.11,29.72-27.11,13.28-3.92,26.24-2.53,38.42,4.04Z"></path>
      </g>
      <g>
        <path class="cls-6" d="M288.65,7.44c69.86,15.82,123.03,64.09,162.82,124.01,1.87,2.79,3.79,5.54,5.72,8.28.32.5.48.99.5,1.49,1.38,35.34-87.49,21.94-90.26,9.08-4.88-12.27-11.99-23.32-18.97-34.36-5.31-8.42-10.02-17.13-14.66-25.97-6.61-12.38-13.34-24.69-20.16-36.94-.86-1.55-1.73-3.11-2.62-4.71-4.02-7.2-8.05-14.39-12.12-21.56-.7-1.24-1.4-2.47-2.12-3.74-1.29-2.28-2.59-4.56-3.9-6.83-4.23-7.45-4.23-5.27-4.23-8.74Z"></path>
        <path class="cls-7" d="M55.67,71.27c-1.82,1.97-3.65,3.94-5.5,5.88-8.77,9.14-17.19,18.4-24.55,28.74-1.98,2.83-4,5.57-6.13,8.29-6.67,8.51-13.2,17.09-17.63,27.01-3.52,13.74-1.99,27.73,4.23,40.38,1.47,2.37,2.94,4.74,4.41,7.11.09.23,28.9,3.64,56.92,6.9.48-1.2,1.21-2.3,2.21-3.2.63-.57,1.26-1.13,1.85-1.74.16-.16,1.02-1.24.91-1.04,1.06-1.54,1.97-3.15,3.23-4.56,2.39-2.7,5.72-5.06,9.17-6.17.54-.17,1.09-.3,1.64-.39.9-3.52,1.85-7.05,2.35-10.62.2-1.39.42-3.37.65-5.08.2-1.54.4-3.09.63-4.63.07-.46.12-.79.14-.96.41-3.6.79-7.22,2.57-10.44.01-.59.1-1.16.21-1.72-.02-.23-.04-.47-.04-.7,0-2.21.77-4.28,2.04-5.97.62-1.1,1.44-2.09,2.4-2.9.1-.68.26-1.24.52-1.63,1.35-2.01,2.63-4.08,3.86-6.17,1.53-2.66,3.07-5.31,4.61-7.95,1.73-2.96,3.46-5.92,5.19-8.88.93-1.6,1.84-3.15,2.74-4.7,2.76-4.72,5.52-9.45,8.27-14.18,7.52-12.92,14.98-25.88,22.73-38.67,4.64-7.66,9.16-15.37,13.55-23.18.66-1.19,1.31-2.34,1.95-3.5,3.53-6.3,6.98-12.44,9.44-19.25-38.64,0-89.31,37.37-114.56,63.92Z"></path>
        <path class="cls-4" d="M215.3,0c1.44,0,2.88.02,4.36.02,1.55,0,3.11,0,4.71.01q2.45.02,4.96.04t4.97.02c4.07.02,8.14.04,12.21.07,3.96,8.21,5.71,16.07,7.22,25.03.25,1.45.51,2.9.77,4.39.54,3.1,1.08,6.2,1.62,9.3,1.4,8.12,2.83,16.23,4.27,24.34.29,1.62.57,3.23.87,4.9,2.93,16.48,6.19,32.9,9.55,49.29.2.96.39,1.93.6,2.92.52,2.53,1.05,5.07,1.57,7.6,3.46,18.15,5.85,39.08-4.07,55.56-7.51,10.51-17.07,17.63-29.59,21.02-13.6,1.35-26.11,1.45-37.42-7.2-10.93-9.48-17.97-21.25-19.17-35.8-.04-2.06-.05-4.11-.04-6.17,0-1.12,0-2.25.01-3.41.27-13.39,2.86-26.26,5.52-39.34.52-2.66,1.04-5.33,1.56-7.99.81-4.16,1.61-8.31,2.43-12.46,1.99-10.12,3.86-20.27,5.66-30.42.26-1.43.51-2.87.78-4.34,1-5.59,1.99-11.17,2.97-16.76Q208.71.32,215.3,0Z"></path>
        <path class="cls-2" d="M365.95,141.19q1.84,35.67-11.27,50.46c-9.85,9.61-20.45,13.16-34.07,13.58-12.92-.39-23.35-3.62-32.96-12.44-3.68-4.29-6.32-9.1-8.97-14.08q-1.81-3.43-6.27-4.42c.22-1.18.44-2.35.67-3.56.87-5.71,1.26-11.36,1.58-17.12.06-1.06.12-2.12.19-3.21.15-2.59.3-5.18.44-7.76,11.61-.19,23.22-.38,34.83-.56,5.39-.09,10.78-.17,16.17-.26,5.2-.08,10.39-.17,15.59-.25,1.99-.03,3.97-.06,5.96-.1,2.77-.04,5.55-.09,8.32-.13q2.37-.04,4.79-.08,3.56-.05,5-.05Z"></path>
        <path class="cls-8" d="M370.76,141.17c10.48-.03,20.97-.05,31.45-.06,5.39,0,10.78-.02,16.17-.03,5.2-.02,10.39-.02,15.59-.03,1.99,0,3.97,0,5.96-.02,2.77-.01,5.55-.01,8.32-.01,1.58,0,3.16,0,4.79,0q3.56.17,5,1.61c1.37,17.05.06,30.86-9.69,45.47-3.96,4.2-8.27,6.47-13.43,8.86-.9.44-1.8.87-2.72,1.32-11.2,5.38-21.97,6.8-34.06,3.18-14.22-5.47-23.93-14.14-30.22-27.98-2.63-7.29-2.79-14.52-2.97-22.2-.05-1.39-.1-2.78-.15-4.21-.27-1.97-.19-5.02,1.39-5.53,1.71-.55,3.39-.21,4.56-.34Z"></path>
        <path class="cls-2" d="M92.52,141.19c29.92.47,59.84.95,90.66,1.44q1.68,30.33-7.2,43.17c-.59.9-1.17,1.79-1.78,2.72-5.84,7.94-27.72,16.32-31.44,16.27-1.34,0-2.68-.02-4.06-.03-1.38-.02-2.76-.05-4.19-.07-1.41-.01-2.82-.03-4.27-.04-3.46-.03-10.39-2.04-10.39-3.02-1.05-.35-2.1-.7-3.19-1.07-11.03-4.98-18.22-15.41-22.72-26.27-3.49-10.48-1.44-22.06-1.44-33.1Z"></path>
        <path class="cls-5" d="M184.62,142.63c9.24-.04,18.47-.06,27.71-.08,3.13,0,6.27-.02,9.4-.03,17.43-.07,34.74,0,52.11,1.55q1.12,30.67-5.76,40.29c-.72,1.01-1.43,2.02-2.17,3.06-6.75,8.53-15.72,15.14-26.61,17.08-13.68,1.06-26.04,1.55-37.42-7.2-8.81-7.93-16.24-17.57-17.73-29.66-.1-3.83-.04-7.62.11-11.45.03-1.31.05-2.63.08-3.98.07-3.2.16-6.4.28-9.6Z"></path>
        <path class="cls-3" d="M3,142.11c28.64-.14,58.19.35,86.8,1.48,1.39.05,2.5,1.16,2.57,2.55,1.26,24.23.39,24.75-6.06,36.54-.08.14-.17.27-.26.4-2.99,3.77-5.95,7.13-9.63,10.25l-3.23,2.97c-.1.09-.2.18-.31.25-11.95,8.25-24.62,8.31-38.63,7.04l-.48-.08c-5.17-1.36-9.71-3.2-14.39-5.79l-3.51-1.74c-.14-.07-.27-.15-.39-.23-4.4-3.15-6.27-6.42-8.9-11.19-.87-1.54-1.73-3.08-2.63-4.66-2.79-5.41-3.77-9.33-3.73-15.33,0-1.31,0-2.61.01-3.96.01-1.36.02-2.72.04-4.12,0-1.38.01-2.75.02-4.17.01-2.51.03-5.02.05-7.53.01-1.47,1.2-2.66,2.67-2.67Z"></path>
        <polygon class="cls-1" points="92.52 141.19 170.23 7.36 211.58 .69 208.41 6.07 183.18 142.63 92.52 141.19"></polygon>
        <polygon class="cls-1" points="275.54 142.51 250.29 9.85 246.5 .16 288.24 7.36 364.51 141.19 275.54 142.51"></polygon>
      </g>
    </g>
  </g>
</svg>