<?xml version="1.0"?>
<svg id="Layer_2" data-name="Layer 2" xmlns="http://www.w3.org/2000/svg" viewBox="0 0 1323.63 501.36">
  <defs>
    
  </defs>
  <g id="Layer_1" data-name="Layer 1">
    <g>
      <path class="cls-1" d="M505.14,449.36c-1.9-.14-3.56-.28-4.96-.42l-4.43-.42v-14.35c7.04.56,11.47.84,13.3.84,7.04,0,12.28-2.78,15.73-8.34,3.45-5.56,5.17-13.33,5.17-23.33v-111.67h16.25v107.66c0,33.49-11.61,50.24-34.83,50.24-2.25,0-4.33-.07-6.23-.21Z"></path>
      <path class="cls-1" d="M580.19,245.45h16.25v151.56h-16.25v-151.56Z"></path>
      <path class="cls-1" d="M633.27,449.36c-1.9-.14-3.56-.28-4.96-.42l-4.43-.42v-14.35c7.04.56,11.47.84,13.3.84,7.04,0,12.28-2.78,15.73-8.34,3.45-5.56,5.17-13.33,5.17-23.33v-111.67h16.25v107.66c0,33.49-11.61,50.24-34.83,50.24-2.25,0-4.33-.07-6.23-.21ZM657.86,254.11h16.04v17.73h-16.04v-17.73Z"></path>
      <path class="cls-1" d="M828.63,413.9v17.73h16.04v-17.73h-16.04Z"></path>
      <polygon class="cls-1" points="844.88 291.47 844.88 397.02 708.31 397.02 708.31 245.45 724.57 245.45 724.57 382.45 828.63 382.45 828.63 291.47 844.88 291.47"></polygon>
      <path class="cls-1" d="M1177.98,413.9v17.73h16.04v-17.73h-16.04ZM1151.59,413.9v17.73h16.04v-17.73h-16.04Z"></path>
      <path class="cls-1" d="M1315.08,318.7c-5.7-8.58-14.67-12.88-26.91-12.88h-51.09l8.02-15.62c2.68-5.2,5.63-10.45,8.87-15.72,3.23-5.28,8.09-12.77,14.56-22.48l-11.61-6.55c-5.2,6.34-10.38,13.13-15.51,20.37-5.14,7.25-8.97,13.41-11.5,18.47l-10.98,21.53,10.76,14.57h57.21c7.31.14,12.56,3.31,15.72,9.5,3.17,6.19,4.75,13.51,4.75,21.95v30.61h-126.23v-90.98h-16.25v90.98h-162.96v-90.98c-5.21-.98-11.79-1.9-19.74-2.74-7.95-.85-14.74-1.27-20.37-1.27-11.82,0-21.04,2.15-27.65,6.44-6.61,4.29-11.19,10.55-13.72,18.79-2.53,8.23-3.8,18.89-3.8,31.98,0,15.48,2.5,28.07,7.5,37.78,4.99,9.71,15.16,14.57,30.5,14.57h31.03c0,10.69-.92,18.78-2.75,24.27-1.83,5.49-4.25,9.11-7.28,10.87-3.03,1.76-7,2.64-11.93,2.64-7.46,0-17.73-.99-30.81-2.96v14.36c14.77,2.11,25.4,3.17,31.87,3.17,12.24,0,21.21-4.3,26.91-12.88,5.7-8.59,8.97-21.74,9.82-39.47h322.12v-44.97c0-13.65-2.85-24.76-8.55-33.35ZM985.68,382.45h-24.91c-11.26,0-18.72-3.55-22.38-10.66-3.66-7.1-5.48-16.29-5.48-27.55,0-9.57.95-17.41,2.84-23.53,1.91-6.12,5.25-10.77,10.03-13.94,4.78-3.16,11.47-4.75,20.05-4.75,5.63,0,12.25.5,19.85,1.48v78.95Z"></path>
    </g>
    <g>
      <path class="cls-1" d="M493.32,53h61c17.01,0,29.61,3.52,37.79,10.57,8.18,7.05,12.27,18.02,12.27,32.93,0,9.88-1.78,17.78-5.35,23.69-3.57,5.92-8.99,10.65-16.28,14.22,9.07,3.24,15.8,8.1,20.17,14.58,4.37,6.48,6.56,15.23,6.56,26.25,0,15.88-4.42,27.5-13.24,34.87-8.83,7.37-21.75,11.06-38.76,11.06h-64.16V53ZM555.29,127.6c10.21,0,17.74-2.47,22.6-7.41,4.86-4.94,7.29-12.35,7.29-22.24s-2.51-17.29-7.53-21.75c-5.02-4.45-13.04-6.68-24.06-6.68h-41.56v58.08h43.26ZM556.75,204.64c11.02,0,19.4-2.35,25.15-7.05,5.75-4.7,8.63-12.31,8.63-22.84,0-11.34-3.16-19.32-9.48-23.94-6.32-4.62-14.82-6.93-25.52-6.93h-43.5v60.75h44.71Z"></path>
      <path class="cls-1" d="M728.32,177.91h-71.93l-12.15,43.26h-18.47l46.17-168.17h40.83l46.17,168.17h-18.47l-12.15-43.26ZM660.51,161.14h63.67l-25.52-92.1h-12.64l-25.52,92.1Z"></path>
      <path class="cls-1" d="M775.21,199.78l87.73-124.91v-5.35h-87.73v-16.52h109.36v21.87l-87.97,124.91v4.86h87.97v16.77h-109.36v-21.63Z"></path>
      <path class="cls-1" d="M1003.41,177.91h-71.93l-12.15,43.26h-18.47l46.17-168.17h40.83l46.17,168.17h-18.47l-12.15-43.26ZM935.6,161.14h63.67l-25.52-92.1h-12.64l-25.52,92.1Z"></path>
      <path class="cls-1" d="M1148.24,177.91h-71.93l-12.15,43.26h-18.47l46.17-168.17h40.83l46.17,168.17h-18.47l-12.15-43.26ZM1080.44,161.14h63.67l-25.52-92.1h-12.64l-25.52,92.1Z"></path>
      <path class="cls-1" d="M1205.35,53h62.21c17.98,0,31.43,4.17,40.34,12.52,8.91,8.35,13.37,21.18,13.37,38.52,0,26.09-10.29,42.37-30.86,48.85l32.32,68.29h-20.66l-30.38-64.4h-47.63v64.4h-18.71V53ZM1267.8,140.24c22.84,0,34.26-11.82,34.26-35.48s-11.5-35.24-34.51-35.24h-43.5v70.72h43.74Z"></path>
    </g>
    <g>
      <g>
        <path class="cls-1" d="M365.18,68.23C327.1,24.17,276.21,2.14,212.47,2.14c-60.31,0-110.15,20.11-149.5,60.31C22.77,103.1,2.67,156.56,2.67,222.86c0,38.78,6.09,74.45,19.04,104.52,2.56-.44,5.53-1.92,8.08-1.92h102.06c-19.24-25.96-36.14-60.16-36.14-102.6s10.37-79.13,31.12-105.22c20.75-26.09,48.65-39.14,83.73-39.14s63.52,12.95,84.05,38.82c20.53,25.88,30.81,60.85,30.81,104.9,0,39.36.5,76.29-18.75,101.96l95.41,2.1c12.98-29.23,16.37-64.88,16.37-105.34,0-60.31-17.75-111.21-53.25-152.71Z"></path>
        <path class="cls-1" d="M269.4,282.93c4.83,3.61,9.04,7.67,13.28,11.95,1.17,1.15,2.34,2.31,3.55,3.5,4.36,4.32,8.66,8.68,12.94,13.08q8.82,8.89,20.83,10.85,1.36.02,2.75.04c2.97.04,5.95.03,8.92.02,2.07.02,4.14.04,6.22.06,5.44.05,10.87.07,16.31.07,5.55.01,11.11.06,16.66.11,10.88.09,21.77.13,32.65.15-6.18,15.79-16.26,29.76-27.36,42.47-1.1,1.26-2.2,2.53-3.34,3.83-1.02,1.12-2.03,2.24-3.08,3.39q-2.35,3.25-2.16,6.95c2.13,6.64,6.56,10.31,11.53,15.05q1.53,1.5,3.08,3.02c3.25,3.19,6.52,6.35,9.8,9.51,3.26,3.16,6.51,6.32,9.75,9.5,2.02,1.97,4.04,3.94,6.08,5.89,9.37,9.15,14.92,18.1,16.03,31.5-.49,14.92-6.65,27.15-17.43,37.26-10.5,8.47-20.23,10.76-33.61,10.12-18.54-2.1-31.11-18.46-43.36-31.13-2.15-2.21-4.29-4.41-6.44-6.62-3.33-3.42-6.66-6.86-9.95-10.32-3.22-3.37-6.48-6.71-9.74-10.04-.98-1.04-1.96-2.09-2.96-3.16q-4.83-5.12-11.22-7.41-3.2.28-7.76,1.71c-1.05.24-2.09.47-3.17.72-.85.25-1.71.51-2.58.77-.97.28-1.94.56-2.94.85-.99.29-1.99.59-3.01.89-53.15,15.22-111.05,8.55-159.58-17.84-6.43-3.64-12.56-7.67-18.59-11.95-.74-.52-1.48-1.05-2.24-1.59-28.56-20.58-56.55-50.07-69.46-83.39,13.82-.25,27.63-.44,41.45-.55,6.42-.06,12.83-.13,19.25-.25,6.2-.12,12.4-.18,18.6-.21,2.36-.02,4.72-.06,7.07-.12q20.78-.49,28.41,6.29c1.6,1.8,3.17,3.62,4.72,5.46,10.68,8.47,23.27,14.86,35.85,19.92,1.27.52,2.54,1.04,3.84,1.57,14.13,5.06,29.09,5.46,43.96,6.39-.71-.84-1.41-1.67-2.14-2.53-5.6-6.79-10.39-13.23-13.8-21.37-.47-1-.94-2-1.43-3.02-3.04-8.98-2.73-21.28.85-30.09,6.06-11.33,15.44-20.44,27.47-25.06,12.28-3.62,24.26-2.34,35.52,3.73Z"></path>
      </g>
      <g>
        <path class="cls-6" d="M266.81,6.87c64.57,14.63,113.72,59.24,150.5,114.63,1.73,2.58,3.5,5.12,5.29,7.65.3.46.44.92.46,1.37,1.28,32.67-80.87,20.28-83.43,8.39-4.51-11.34-11.08-21.55-17.53-31.76-4.91-7.78-9.26-15.84-13.55-24.01-6.11-11.44-12.33-22.82-18.63-34.14-.8-1.44-1.6-2.87-2.42-4.35-3.71-6.66-7.44-13.3-11.2-19.93-.65-1.14-1.29-2.28-1.96-3.46-1.2-2.11-2.4-4.21-3.61-6.32-3.91-6.89-3.91-4.88-3.91-8.08Z"></path>
        <path class="cls-7" d="M51.45,65.88c-1.68,1.82-3.37,3.64-5.08,5.43-8.1,8.45-15.89,17.01-22.69,26.57-1.83,2.61-3.7,5.15-5.67,7.66-6.17,7.87-12.2,15.79-16.3,24.96-3.26,12.7-1.84,25.63,3.91,37.33,1.36,2.19,2.72,4.38,4.07,6.57.08.21,26.71,3.36,52.62,6.38.45-1.11,1.12-2.12,2.05-2.96.58-.52,1.16-1.05,1.71-1.61.15-.15.94-1.15.84-.96.98-1.42,1.82-2.91,2.98-4.22,2.21-2.49,5.29-4.67,8.48-5.71.5-.16,1.01-.28,1.52-.36.84-3.26,1.71-6.51,2.17-9.82.18-1.28.39-3.12.6-4.69.19-1.43.37-2.85.59-4.28.06-.43.11-.73.13-.88.38-3.33.73-6.68,2.37-9.65.01-.54.09-1.07.2-1.59-.02-.22-.03-.43-.03-.65,0-2.04.71-3.96,1.88-5.52.57-1.02,1.33-1.93,2.22-2.68.09-.63.24-1.14.48-1.5,1.25-1.86,2.43-3.77,3.57-5.71,1.41-2.46,2.83-4.91,4.26-7.35,1.6-2.74,3.2-5.47,4.8-8.21.86-1.48,1.7-2.91,2.53-4.34,2.55-4.37,5.1-8.74,7.64-13.11,6.95-11.94,13.85-23.92,21.01-35.74,4.29-7.08,8.47-14.21,12.52-21.43.61-1.1,1.21-2.16,1.8-3.23,3.26-5.82,6.45-11.5,8.73-17.79-35.72,0-82.55,34.54-105.9,59.08Z"></path>
        <path class="cls-4" d="M199.01,0c1.33,0,2.66.01,4.03.02,1.44,0,2.87,0,4.35.01q2.27.02,4.58.03t4.6.02c3.76.02,7.52.04,11.28.06,3.66,7.59,5.28,14.85,6.67,23.13.24,1.34.47,2.68.71,4.06.5,2.86,1,5.73,1.49,8.6,1.29,7.5,2.62,15,3.95,22.5.26,1.49.53,2.99.8,4.53,2.71,15.24,5.72,30.41,8.83,45.56.18.89.36,1.78.55,2.7.48,2.34.97,4.68,1.45,7.03,3.2,16.78,5.41,36.12-3.76,51.36-6.95,9.72-15.77,16.3-27.35,19.43-12.57,1.25-24.14,1.34-34.59-6.65-10.1-8.76-16.61-19.64-17.72-33.09-.03-1.9-.04-3.8-.03-5.7,0-1.04,0-2.08.01-3.15.25-12.38,2.65-24.27,5.1-36.37.48-2.46.96-4.92,1.44-7.39.75-3.84,1.49-7.68,2.25-11.52,1.84-9.36,3.56-18.73,5.23-28.12.24-1.33.47-2.65.72-4.02.92-5.16,1.84-10.33,2.75-15.49Q192.92.3,199.01,0Z"></path>
        <path class="cls-2" d="M338.26,130.51q1.7,32.97-10.41,46.64c-9.11,8.89-18.9,12.16-31.49,12.55-11.94-.36-21.58-3.35-30.47-11.5-3.4-3.96-5.85-8.41-8.29-13.01q-1.67-3.17-5.8-4.09c.2-1.09.41-2.17.62-3.29.8-5.28,1.17-10.5,1.46-15.83.06-.98.11-1.96.17-2.97.14-2.39.27-4.78.41-7.18,10.73-.17,21.46-.35,32.19-.52,4.98-.08,9.96-.16,14.95-.24,4.8-.08,9.61-.16,14.41-.23,1.84-.03,3.67-.06,5.51-.09,2.56-.04,5.13-.08,7.69-.12q2.19-.04,4.43-.07,3.29-.05,4.62-.05Z"></path>
        <path class="cls-8" d="M342.71,130.49c9.69-.03,19.38-.05,29.07-.06,4.98,0,9.96-.02,14.95-.03,4.8-.01,9.61-.02,14.41-.03,1.84,0,3.67,0,5.51-.01,2.56,0,5.13-.01,7.69-.01,1.46,0,2.92,0,4.43,0q3.29.16,4.62,1.49c1.27,15.76.06,28.52-8.95,42.03-3.66,3.88-7.64,5.98-12.41,8.19-.83.4-1.66.81-2.52,1.22-10.36,4.97-20.3,6.28-31.49,2.94-13.14-5.06-22.12-13.07-27.93-25.87-2.43-6.74-2.58-13.42-2.75-20.52-.05-1.28-.09-2.57-.14-3.89-.25-1.82-.18-4.64,1.28-5.11,1.58-.51,3.13-.2,4.22-.32Z"></path>
        <path class="cls-2" d="M85.52,130.51c27.65.44,55.31.88,83.8,1.33q1.56,28.03-6.65,39.91c-.54.83-1.08,1.66-1.64,2.51-5.4,7.34-25.62,15.08-29.06,15.04-1.24,0-2.48-.02-3.75-.03-1.28-.02-2.55-.04-3.87-.07-1.3-.01-2.6-.02-3.95-.04-3.2-.03-9.6-1.89-9.6-2.79-.97-.33-1.94-.65-2.95-.99-10.19-4.6-16.84-14.24-21-24.29-3.23-9.68-1.33-20.39-1.33-30.59Z"></path>
        <path class="cls-5" d="M170.65,131.84c8.54-.03,17.08-.06,25.62-.07,2.9,0,5.79-.02,8.69-.03,16.12-.06,32.11,0,48.17,1.43q1.04,28.35-5.32,37.25c-.66.93-1.32,1.87-2.01,2.83-6.24,7.88-14.53,13.99-24.6,15.79-12.64.98-24.07,1.44-34.59-6.65-8.14-7.33-15.01-16.24-16.39-27.41-.09-3.54-.04-7.04.1-10.58.02-1.21.05-2.43.07-3.68.06-2.96.15-5.91.26-8.87Z"></path>
        <path class="cls-3" d="M2.77,131.36c26.47-.13,53.79.32,80.24,1.37,1.28.05,2.31,1.08,2.38,2.36,1.16,22.4.36,22.87-5.6,33.77-.07.13-.15.25-.24.37-2.76,3.48-5.5,6.59-8.9,9.48l-2.99,2.75c-.09.08-.19.16-.29.23-11.04,7.63-22.76,7.68-35.71,6.51l-.44-.08c-4.78-1.25-8.97-2.96-13.3-5.35l-3.24-1.61c-.13-.06-.25-.14-.36-.22-4.06-2.92-5.79-5.94-8.23-10.34-.8-1.42-1.6-2.84-2.43-4.31-2.58-5-3.48-8.62-3.45-14.17,0-1.21,0-2.41.01-3.66.01-1.26.02-2.51.03-3.81,0-1.27.01-2.54.02-3.85.01-2.32.03-4.64.05-6.96.01-1.36,1.11-2.46,2.47-2.47Z"></path>
        <polygon class="cls-1" points="85.52 130.51 157.35 6.8 195.57 .64 192.64 5.61 169.32 131.84 85.52 130.51"></polygon>
        <polygon class="cls-1" points="254.69 131.72 231.35 9.1 227.85 .15 266.43 6.8 336.93 130.51 254.69 131.72"></polygon>
      </g>
    </g>
  </g>
</svg>